<?xml version="1.0" encoding="UTF-8" standalone="no"?>
<!DOCTYPE svg PUBLIC "-//W3C//DTD SVG 1.1//EN" "http://www.w3.org/Graphics/SVG/1.1/DTD/svg11.dtd">
<svg width="100%" height="100%" viewBox="0 0 1800 903" version="1.1" xmlns="http://www.w3.org/2000/svg" xmlns:xlink="http://www.w3.org/1999/xlink" xml:space="preserve" xmlns:serif="http://www.serif.com/" style="fill-rule:evenodd;clip-rule:evenodd;stroke-linejoin:round;stroke-miterlimit:2;">
    <g transform="matrix(1,0,0,1,829.576,681.445)">
        <path d="M0,-171.13C-2.641,-169.86 -5.301,-168.6 -7.971,-167.34L-8.53,-167.08C-9.261,-166.74 -9.98,-166.4 -10.721,-166.06L-10.931,-165.96C-12.33,-165.31 -13.73,-164.66 -15.13,-164.02C-15.2,-163.98 -15.271,-163.95 -15.341,-163.92C-32.426,-156.015 -49.696,-148.491 -67.125,-141.342L-97.719,-129.25C-155.669,-107.196 -215.235,-89.316 -275.67,-75.87C-367.63,-55.42 -462.46,-45.05 -557.54,-45.05C-614.141,-45.05 -677.551,-48.7 -727.17,-54.82L-727.29,-53.82C-727.271,-53.818 -727.25,-53.815 -727.23,-53.813L-727.23,21.33L-191.53,21.33C-191.53,21.33 -191.53,21.329 -191.529,21.329L-191.16,21.65C-138.16,-39.52 -78.931,-95.71 -15.13,-145.34C-15.03,-145.42 -14.92,-145.5 -14.82,-145.58C-10.351,-149.07 -5.67,-152.66 -0.511,-156.55C1.18,-157.83 2.88,-159.11 4.58,-160.36C5.489,-161.05 6.399,-161.73 7.31,-162.4C9.05,-163.7 10.79,-164.99 12.54,-166.26C13.239,-166.78 13.939,-167.29 14.64,-167.8C16.77,-169.37 18.899,-170.91 21.069,-172.47C21.21,-172.58 21.35,-172.68 21.5,-172.78C23.859,-174.49 26.229,-176.18 28.609,-177.86C33.29,-181.2 38.18,-184.61 43.13,-188.02L43.13,-192.78L42.899,-192.66C28.779,-185.24 14.35,-178 0,-171.13" style="fill:rgb(0,237,79);fill-rule:nonzero;"/>
    </g>
    <g transform="matrix(1,0,0,1,1097.64,523.795)">
        <path d="M0,-210.79C-36.15,-210.79 -62.82,-196.27 -80.05,-167.23C-86.47,-181.41 -96.26,-192.22 -109.43,-199.65C-122.6,-207.07 -137.47,-210.79 -154.01,-210.79C-168.54,-210.79 -182.63,-207.41 -196.31,-200.66C-209.99,-193.9 -220.21,-184.45 -226.96,-172.29L-226.96,-203.7L-282.31,-203.7L-282.31,-323.89L-966.936,-323.89C-982.595,-323.89 -995.29,-311.196 -995.29,-295.536L-995.29,103.33C-942.96,109.78 -879.67,113.1 -825.6,113.1C-672.19,113.1 -525.02,86.39 -388.47,37.37C-362.96,28.2 -337.82,18.26 -313.08,7.57C-303.05,3.24 -293.08,-1.22 -283.19,-5.8C-282.42,-6.16 -281.65,-6.51 -280.88,-6.88C-280.11,-7.24 -279.34,-7.6 -278.57,-7.96C-277.65,-8.38 -276.74,-8.81 -275.82,-9.24C-273.15,-10.5 -270.49,-11.76 -267.84,-13.03C-264.22,-14.76 -260.62,-16.51 -257.02,-18.27C-246.24,-23.54 -235.54,-28.97 -224.93,-34.55L-224.93,-103.39C-224.93,-119.27 -220.29,-132.35 -211,-142.66C-201.72,-152.95 -189.31,-158.11 -173.77,-158.11C-157.9,-158.11 -145.99,-153.46 -138.05,-144.18C-130.12,-134.88 -126.15,-122.65 -126.15,-107.45L-126.15,-92.34C-125.59,-92.65 -125.03,-92.96 -124.46,-93.27L-124.34,-93.34L-124.33,-93.35C-124.32,-93.36 -124.31,-93.36 -124.3,-93.37C-124.29,-93.38 -124.27,-93.38 -124.26,-93.39C-124.07,-93.52 -123.87,-93.64 -123.68,-93.77C-123.51,-93.88 -123.34,-93.99 -123.17,-94.1C-122.16,-94.75 -121.14,-95.41 -120.13,-96.08C-118.94,-96.85 -117.76,-97.62 -116.58,-98.4C-115.97,-98.8 -115.37,-99.2 -114.76,-99.6C-113.99,-100.1 -112.73,-100.94 -111.92,-101.48C-111.79,-101.56 -111.67,-101.64 -111.57,-101.71C-111.3,-101.89 -111.13,-102 -111.13,-102C-111.13,-102 -108.7,-103.61 -107.5,-104.42C-106.91,-104.81 -106.32,-105.2 -105.73,-105.6C-103.15,-107.33 -100.58,-109.07 -98.02,-110.82C-95.68,-112.41 -93.36,-114 -91.04,-115.61C-90.93,-115.68 -90.82,-115.76 -90.72,-115.83C-89.34,-116.78 -87.97,-117.74 -86.6,-118.69C-80.1,-123.22 -73.65,-127.81 -67.24,-132.46C-66.38,-133.08 -65.52,-133.7 -64.66,-134.33L-62.08,-136.22C-60.17,-137.61 -58.26,-139.02 -56.36,-140.43C-55.96,-140.71 -55.57,-141.01 -55.17,-141.3C-55.17,-141.31 -55.16,-141.31 -55.16,-141.31C-55.15,-141.32 -55.15,-141.33 -55.14,-141.33C-55.12,-141.35 -55.1,-141.38 -55.08,-141.4C-54.8,-141.74 -54.51,-142.07 -54.21,-142.4C-53.96,-142.68 -53.71,-142.95 -53.45,-143.21L-53.45,-143.22C-49.1,-147.83 -44.19,-151.35 -38.69,-153.81C-38.62,-153.85 -38.55,-153.88 -38.48,-153.91L-38.47,-153.92C-37.34,-154.79 -36.21,-155.66 -35.08,-156.55L-34.97,-156.63L-34.96,-156.64C-34.24,-157.19 -33.52,-157.75 -32.8,-158.32C-31.6,-159.24 -30.39,-160.18 -29.19,-161.12C-29.18,-161.13 -29.18,-161.13 -29.17,-161.14C-26.96,-162.87 -24.75,-164.61 -22.55,-166.35C-22.34,-166.52 -22.12,-166.69 -21.9,-166.87C-19.72,-168.6 -17.55,-170.34 -15.38,-172.09C-14.42,-172.86 -13.45,-173.63 -12.49,-174.41C-8.05,-178.01 -3.62,-181.64 0.77,-185.3C1.77,-186.12 2.77,-186.96 3.76,-187.79C5.25,-189.03 6.74,-190.28 8.22,-191.54C9.74,-192.82 11.26,-194.1 12.77,-195.4C14.41,-196.79 16.04,-198.19 17.67,-199.6C18.24,-200.08 18.81,-200.57 19.38,-201.07C21.75,-203.11 24.12,-205.17 26.48,-207.24C18.21,-209.6 9.38,-210.79 0,-210.79" style="fill:white;fill-rule:nonzero;"/>
    </g>
    <g transform="matrix(1,0,0,1,850.785,551.375)">
        <path d="M0,-43.12C-0.15,-43.02 -0.3,-42.91 -0.45,-42.79C-0.46,-42.78 -0.47,-42.78 -0.48,-42.77C-2.62,-41.23 -4.75,-39.69 -6.87,-38.13C-7.57,-37.62 -8.27,-37.11 -8.97,-36.59C-10.6,-35.39 -12.23,-34.19 -13.86,-32.98C-13.97,-32.9 -14.09,-32.81 -14.2,-32.73C-15.11,-32.06 -16.02,-31.38 -16.93,-30.69C-17.09,-30.57 -17.26,-30.45 -17.42,-30.33C-18.96,-29.18 -20.49,-28.03 -22.02,-26.88C-26.82,-23.25 -31.59,-19.59 -36.34,-15.9L-36.34,15.43L21.92,15.43L21.92,-58.55C16.96,-55.14 12.02,-51.69 7.11,-48.2C4.73,-46.52 2.36,-44.82 0,-43.12" style="fill:white;fill-rule:nonzero;"/>
    </g>
    <g transform="matrix(1,0,0,1,815.325,671.445)">
        <path d="M0,-104.64L0,-2.738C0,16.077 -15.253,31.33 -34.068,31.33L-177.28,31.33C-135.13,-17.32 -89.24,-62.65 -40.06,-104.21C-36.98,-106.81 -33.88,-109.4 -30.77,-111.98C-20.94,-120.13 -10.97,-128.13 -0.88,-135.97L-0.88,-104.64L0,-104.64Z" style="fill:white;fill-rule:nonzero;"/>
    </g>
    <g transform="matrix(1,0,0,1,382.49,566.808)">
        <path d="M0,-246.714L-96.761,0L-155.526,0L-255.833,-246.714L-190.988,-246.714L-125.637,-70.417L-61.805,-246.714L0,-246.714Z" style="fill:rgb(19,67,124);fill-rule:nonzero;"/>
    </g>
    <g transform="matrix(1,0,0,1,474.778,358.595)">
        <path d="M0,169.711C18.237,169.711 33.008,164.732 44.327,154.767C55.639,144.809 61.298,128.511 61.298,105.88L61.298,94.734L-3.04,104.36C-24.998,108.08 -35.969,119.226 -35.969,137.796C-35.969,146.582 -32.763,154.094 -26.343,160.339C-19.932,166.593 -11.146,169.711 0,169.711M-94.734,141.342C-94.734,120.405 -87.895,103.6 -74.217,90.936C-60.539,78.271 -42.555,70.252 -20.264,66.871L43.061,57.246C55.219,55.561 61.298,49.648 61.298,39.516C61.298,28.37 57.412,19.338 49.646,12.412C41.874,5.494 30.222,2.026 14.691,2.026C-0.174,2.026 -11.992,6.167 -20.771,14.439C-29.557,22.719 -34.623,33.436 -35.969,46.607L-89.668,34.449C-87.31,12.159 -76.671,-6.839 -57.752,-22.543C-38.842,-38.248 -14.866,-46.101 14.185,-46.101C49.979,-46.101 76.409,-37.488 93.467,-20.264C110.518,-3.039 119.051,19.085 119.051,46.101L119.051,168.698C119.051,184.909 120.064,198.081 122.09,208.213L67.377,208.213C65.684,203.147 64.845,192.683 64.845,176.804C48.633,202.815 23.303,215.812 -11.146,215.812C-36.143,215.812 -56.32,208.466 -71.684,193.774C-87.056,179.083 -94.734,161.606 -94.734,141.342" style="fill:rgb(19,67,124);fill-rule:nonzero;"/>
    </g>
    <g transform="matrix(1,0,0,1,971.485,430.695)">
        <path d="M0,0.76L0,0.93C0.57,0.57 1.13,0.2 1.69,-0.17C1.12,0.14 0.561,0.45 0,0.76" style="fill:rgb(64,135,247);fill-rule:nonzero;"/>
    </g>
    <g transform="matrix(1,0,0,1,1272.4,470.553)">
        <path d="M0,-54.205L121.077,-54.205C120.396,-69.735 114.911,-82.741 104.613,-93.214C94.307,-103.678 79.536,-108.918 60.285,-108.918C42.721,-108.918 28.536,-103.425 17.731,-92.453C6.919,-81.475 1.014,-68.723 0,-54.205M127.663,10.133L177.311,25.838C170.218,48.469 156.959,67.125 137.542,81.816C118.117,96.508 94.228,103.854 65.858,103.854C30.729,103.854 0.927,91.87 -23.557,67.886C-48.048,43.909 -60.285,11.827 -60.285,-28.368C-60.285,-66.189 -48.38,-97.267 -24.57,-121.583C-0.76,-145.899 27.356,-158.059 59.779,-158.059C97.6,-158.059 127.157,-146.485 148.434,-123.356C169.711,-100.219 180.35,-69.062 180.35,-29.889C180.35,-19.416 179.843,-13.171 178.83,-11.144L-1.52,-11.144C-0.847,7.434 5.992,22.798 18.998,34.956C31.995,47.114 47.621,53.194 65.858,53.194C97.6,53.194 118.204,38.843 127.663,10.133" style="fill:white;fill-rule:nonzero;"/>
    </g>
    <g transform="matrix(1,0,0,1,1448.47,320.094)">
        <path d="M0,246.714L89.669,122.091L1.521,0L71.431,0C73.117,2.707 82.323,16.132 99.041,40.275C115.759,64.425 124.624,77.344 125.637,79.029L179.337,0L246.208,0L159.579,121.077L249.247,246.714L180.35,246.714L123.104,164.138C122.091,165.491 117.104,172.837 108.159,186.175C99.207,199.521 90.508,212.353 82.069,224.677C73.623,237.01 68.724,244.356 67.378,246.714L0,246.714Z" style="fill:white;fill-rule:nonzero;"/>
    </g>
    <g transform="matrix(1,0,0,1,1184.77,504.135)">
        <path d="M0,-97.41L0,62.67L-56.74,62.67L-56.74,-87.79C-56.74,-102.99 -60.71,-115.22 -68.64,-124.52C-72.73,-129.3 -77.88,-132.85 -84.08,-135.17C-62.57,-144.08 -40.75,-152.38 -18.64,-160.08L-18.63,-160.08C-6.21,-144.65 0,-123.76 0,-97.41" style="fill:white;fill-rule:nonzero;"/>
    </g>
    <g transform="matrix(1,0,0,1,1032.59,566.805)">
        <path d="M0,-167.22C-0.08,-167 -0.15,-166.78 -0.23,-166.55C-2.32,-160.39 -3.35,-153.68 -3.35,-146.4L-3.35,0L-61.1,0L-61.1,-135.18C-60.53,-135.54 -59.97,-135.91 -59.41,-136.28L-59.29,-136.35L-59.28,-136.36C-59.26,-136.37 -59.23,-136.38 -59.21,-136.4C-56.81,-137.73 -54.4,-139.06 -51.98,-140.38C-49.78,-141.59 -47.57,-142.79 -45.36,-143.98L-43.74,-144.85C-41.7,-145.94 -39.66,-147.03 -37.61,-148.12C-37.33,-148.27 -37.04,-148.42 -36.75,-148.57C-35.15,-149.42 -33.54,-150.27 -31.93,-151.11C-31.74,-151.21 -31.54,-151.31 -31.35,-151.41C-30.18,-152.02 -29.01,-152.63 -27.84,-153.24C-27.79,-153.27 -27.73,-153.29 -27.68,-153.32C-27.67,-153.33 -27.65,-153.33 -27.64,-153.34C-26.5,-153.93 -25.35,-154.53 -24.2,-155.12C-21.9,-156.3 -19.6,-157.47 -17.3,-158.63C-15.98,-159.31 -14.65,-159.97 -13.33,-160.63C-13.15,-160.72 -12.97,-160.81 -12.79,-160.9C-11.28,-161.66 -9.76,-162.42 -8.25,-163.17C-8.19,-163.19 -8.14,-163.22 -8.08,-163.25C-7.79,-163.4 -7.51,-163.54 -7.22,-163.68C-4.82,-164.87 -2.41,-166.05 0,-167.22" style="fill:white;fill-rule:nonzero;"/>
    </g>
    <g transform="matrix(1,0,0,1,1100.89,274.535)">
        <path d="M0,95.43L-0.2,95.43L-0.205,94.418L-0.585,93.507C2.109,92.385 4.802,91.284 7.506,90.193C9.785,89.263 12.078,88.342 14.371,87.43L17.364,86.245C18.22,85.907 19.075,85.568 19.93,85.238L23.336,83.903C23.903,83.68 24.471,83.458 25.038,83.244C26.619,82.627 28.211,82.017 29.803,81.407C30.782,81.027 31.765,80.656 32.747,80.284L33.215,80.108C35.521,79.237 37.826,78.365 40.142,77.502L40.28,77.451C42.087,76.778 43.895,76.104 45.711,75.45C46.46,75.168 47.228,74.889 47.991,74.612L49.291,74.136C51.721,73.249 54.173,72.368 56.625,71.497C59.385,70.507 62.148,69.536 64.912,68.576L65.081,68.52C195.649,23.055 332.631,0 472.21,0L472.21,2C332.796,2 195.985,25.034 65.579,70.464L65.409,70.52C62.706,71.46 60.001,72.41 57.298,73.381C54.847,74.251 52.4,75.13 49.963,76.02L48.675,76.492C47.917,76.766 47.156,77.043 46.401,77.326C44.579,77.983 42.778,78.654 40.979,79.325L40.84,79.377C38.527,80.238 36.225,81.109 33.922,81.979L33.454,82.156C32.476,82.525 31.499,82.894 30.521,83.273C28.93,83.882 27.342,84.492 25.754,85.112C25.184,85.326 24.625,85.545 24.066,85.765L20.651,87.103C19.801,87.431 18.951,87.768 18.102,88.105L15.108,89.289C12.822,90.198 10.535,91.117 8.258,92.046C5.558,93.136 2.871,94.235 0.185,95.353L0,95.43Z" style="fill:rgb(29,207,86);fill-rule:nonzero;"/>
    </g>
    <g transform="matrix(-0.707107,-0.707107,-0.707107,0.707107,276.696,613.657)">
        <rect x="-22.123" y="9.163" width="44.245" height="44.245" style="fill:rgb(19,67,124);"/>
    </g>
    <g transform="matrix(1,0,0,1,754.285,290.007)">
        <path d="M0,227.658C-10.81,227.658 -18.74,225.218 -23.81,220.318C-28.87,215.418 -31.41,207.568 -31.41,196.758L-31.41,82.268L19.76,82.268L19.76,30.088L-31.41,30.088L-31.41,-45.392L-84.6,-45.392L-84.6,-8.412C-84.6,3.068 -87.81,12.358 -94.22,19.448C-100.64,26.538 -110.1,30.088 -122.59,30.088L-135.26,30.088L-135.26,82.268L-89.67,82.268L-89.67,206.388C-89.67,229.358 -83.08,247.338 -69.91,260.338C-65.53,264.668 -57.487,270.16 -52.007,273.05C-33.959,267.044 -5.283,255.592 20.27,245.194L20.27,225.638C13.51,226.988 6.76,227.658 0,227.658" style="fill:rgb(19,67,124);fill-rule:nonzero;"/>
    </g>
    <g transform="matrix(0,1,1,0,204.699,629.84)">
        <path d="M6.124,-6.124C2.742,-6.124 0,-3.382 0,0C0,3.382 2.742,6.124 6.124,6.124C9.506,6.124 12.248,3.382 12.248,0C12.248,-3.382 9.506,-6.124 6.124,-6.124" style="fill:rgb(19,67,124);fill-rule:nonzero;"/>
    </g>
    <g transform="matrix(0,1,1,0,178.359,628.367)">
        <path d="M6.124,-6.124C2.742,-6.124 0,-3.382 0,0C0,3.382 2.742,6.124 6.124,6.124C9.506,6.124 12.248,3.382 12.248,0C12.248,-3.382 9.506,-6.124 6.124,-6.124" style="fill:rgb(19,67,124);fill-rule:nonzero;"/>
    </g>
    <g transform="matrix(0,1,1,0,152.019,626.161)">
        <path d="M6.124,-6.124C2.742,-6.124 0,-3.382 0,0C0,3.382 2.742,6.124 6.124,6.124C9.506,6.124 12.248,3.382 12.248,0C12.248,-3.382 9.506,-6.124 6.124,-6.124" style="fill:rgb(19,67,124);fill-rule:nonzero;"/>
    </g>
    <g transform="matrix(1,0,0,1,1159.44,411.835)">
        <path d="M0,-75.02C-10.37,-84.77 -22.14,-91.52 -35.319,-95.28C-37.68,-93.21 -40.05,-91.15 -42.42,-89.11C-42.989,-88.61 -43.56,-88.12 -44.13,-87.64C-45.76,-86.22 -47.39,-84.83 -49.029,-83.44C-50.54,-82.14 -52.06,-80.86 -53.58,-79.58C-55.06,-78.32 -56.55,-77.07 -58.04,-75.83C-59.029,-75 -60.029,-74.16 -61.029,-73.34C-65.42,-69.68 -69.85,-66.05 -74.29,-62.45C-75.25,-61.67 -76.22,-60.9 -77.18,-60.13C-79.35,-58.37 -81.52,-56.64 -83.7,-54.91C-83.92,-54.73 -84.14,-54.56 -84.35,-54.39C-86.55,-52.65 -88.75,-50.91 -90.97,-49.18L-90.989,-49.16C-92.189,-48.22 -93.399,-47.28 -94.6,-46.36C-95.319,-45.79 -96.04,-45.23 -96.76,-44.68L-96.77,-44.67L-96.88,-44.59C-98.01,-43.7 -99.14,-42.83 -100.27,-41.96L-100.279,-41.95C-100.35,-41.92 -100.42,-41.89 -100.489,-41.85L-115.845,-30.223L-115.25,-31.25L-115.25,-31.26L-115.2,-31.34L-118.46,-28.87C-120.359,-27.46 -122.27,-26.05 -124.17,-24.66L-126.75,-22.77C-127.609,-22.14 -128.47,-21.53 -129.33,-20.9C-135.779,-16.23 -142.29,-11.6 -148.689,-7.14L-150.239,-6.06C-151.09,-5.47 -151.95,-4.87 -152.8,-4.28L-152.89,-4.22C-152.96,-4.17 -153.029,-4.12 -153.13,-4.06C-155.439,-2.45 -157.76,-0.86 -160.1,0.73C-162.66,2.48 -165.229,4.22 -167.81,5.95C-168.399,6.34 -168.989,6.73 -169.58,7.13C-170.779,7.94 -173.21,9.54 -173.22,9.55C-173.33,9.63 -175.649,11.17 -176.83,11.94L-178.66,13.14C-179.83,13.92 -181.01,14.69 -182.21,15.46C-183.21,16.13 -184.229,16.79 -185.239,17.44L-186.029,17.96C-186.109,18 -186.189,18.05 -186.29,18.12L-187.95,19.1L-187.95,20.26L-185.88,19.04L-183.89,17.94C-182.13,16.96 -180.359,15.99 -178.59,15.03C-176.39,13.82 -174.18,12.62 -171.97,11.43L-170.35,10.56C-168.31,9.47 -166.27,8.38 -164.22,7.29C-163.95,7.14 -163.66,6.99 -163.37,6.84C-161.77,5.99 -160.16,5.14 -158.55,4.3C-157.12,3.55 -155.689,2.81 -154.26,2.07L-153.109,1.48C-152.35,1.08 -151.58,0.69 -150.819,0.29L-143.92,-3.22C-142.819,-3.78 -141.72,-4.33 -140.62,-4.88L-139.96,-5.21C-138.21,-6.09 -136.46,-6.97 -134.7,-7.84C-134.42,-7.98 -134.14,-8.12 -133.85,-8.26C-131.6,-9.38 -129.34,-10.48 -127.08,-11.58C-126.93,-11.65 -126.779,-11.73 -126.63,-11.8L-126.489,-11.87L-126.064,-12.604L-58.76,-42.87L-58.75,-42.87C-56.06,-43.98 -53.37,-45.09 -50.67,-46.18C-48.39,-47.11 -46.1,-48.03 -43.81,-48.94L-42.069,-49.63C-40.8,-50.13 -39.529,-50.64 -38.26,-51.13C-37.41,-51.46 -36.56,-51.8 -35.71,-52.13C-34.859,-52.46 -34.01,-52.8 -33.16,-53.12C-31.569,-53.74 -29.979,-54.35 -28.39,-54.96C-27.41,-55.34 -26.43,-55.71 -25.45,-56.08C-22.989,-57.01 -20.529,-57.94 -18.06,-58.86C-16.21,-59.55 -14.359,-60.24 -12.5,-60.91C-11.54,-61.27 -10.569,-61.62 -9.609,-61.97C-9.38,-62.05 -9.16,-62.14 -8.93,-62.22C-6.489,-63.11 -4.04,-63.99 -1.59,-64.86C1.17,-65.85 3.931,-66.82 6.69,-67.78C4.641,-70.35 2.4,-72.76 0,-75.02" style="fill:rgb(0,237,79);fill-rule:nonzero;"/>
    </g>
    <g transform="matrix(0.707107,0.707107,0.707107,-0.707107,1550.97,253.774)">
        <rect x="9.163" y="-22.122" width="44.244" height="44.244" style="fill:rgb(0,237,79);"/>
    </g>
    <g transform="matrix(-1,0,0,1,1624.42,282.835)">
        <path d="M-0.001,-12.248C3.381,-12.248 6.124,-9.506 6.124,-6.124C6.124,-2.742 3.381,0 -0.001,0C-3.383,0 -6.125,-2.742 -6.125,-6.124C-6.125,-9.506 -3.383,-12.248 -0.001,-12.248" style="fill:rgb(0,237,79);fill-rule:nonzero;"/>
    </g>
    <g transform="matrix(-1,0,0,1,1650.77,284.309)">
        <path d="M0,-12.248C3.382,-12.248 6.124,-9.506 6.124,-6.124C6.124,-2.742 3.382,0 0,0C-3.382,0 -6.124,-2.742 -6.124,-6.124C-6.124,-9.506 -3.382,-12.248 0,-12.248" style="fill:rgb(0,237,79);fill-rule:nonzero;"/>
    </g>
    <g transform="matrix(-1,0,0,1,1677.11,286.514)">
        <path d="M0,-12.248C3.382,-12.248 6.124,-9.506 6.124,-6.124C6.124,-2.742 3.382,0 0,0C-3.382,0 -6.124,-2.742 -6.124,-6.124C-6.124,-9.506 -3.382,-12.248 0,-12.248" style="fill:rgb(0,237,79);fill-rule:nonzero;"/>
    </g>
</svg>
